<svg xmlns="http://www.w3.org/2000/svg" viewBox="0 0 494.78 30.25"><defs><style>.cls-1{fill:#231815;stroke:#231815;stroke-miterlimit:10;}</style></defs><g id="图层_2" data-name="图层 2"><g id="图层_1-2" data-name="图层 1"><path class="cls-1" d="M6.49,7.35H21.88V8.94H8.33V19.43H19.74V21H8.33V33.7H6.49Z" transform="translate(-5.99 -4.43)"/><path class="cls-1" d="M27.3,32.59,43.39,8.87H28.67V7.31H45.62V8.42L29.5,32.11H45.88V33.7H27.3Z" transform="translate(-5.99 -4.43)"/><path class="cls-1" d="M51.56,30.21l1.18-1.27a11.05,11.05,0,0,0,8.15,3.56c4.24,0,6.9-2.15,6.9-5.25,0-3.33-2.33-4.36-5.12-5.54l-4-1.79c-2.45-1-5.73-2.65-5.73-6.56S56.37,6.87,61,6.87A10.84,10.84,0,0,1,68.72,10l-1.06,1.23A9.19,9.19,0,0,0,61,8.55c-3.69,0-6.16,1.84-6.16,4.7,0,3.07,2.85,4.22,4.94,5.08l4,1.78c3.15,1.31,5.95,2.95,5.95,7s-3.47,7.1-8.82,7.1A12.32,12.32,0,0,1,51.56,30.21Z" transform="translate(-5.99 -4.43)"/><path class="cls-1" d="M75.3,32.59,91.39,8.87H76.67V7.31h17V8.42L77.5,32.11H93.88V33.7H75.3Z" transform="translate(-5.99 -4.43)"/><path class="cls-1" d="M122.65,20.43c0-8.36,4.1-13.56,9.85-13.56s9.84,5.2,9.84,13.56-4.1,13.75-9.84,13.75S122.65,28.83,122.65,20.43Zm17.76,0c0-7.32-3.2-11.88-7.91-11.88s-7.91,4.56-7.91,11.88,3.19,12.07,7.91,12.07S140.41,27.79,140.41,20.43Z" transform="translate(-5.99 -4.43)"/><path class="cls-1" d="M148.71,14.5h1.5l.19,3.68h.16C152.78,15.8,155,14,158.14,14c4.66,0,6.9,2.51,6.9,7.72v12h-1.78V22c0-4.29-1.6-6.36-5.4-6.36-2.73,0-4.61,1.43-7.37,4.33V33.7h-1.78Z" transform="translate(-5.99 -4.43)"/><path class="cls-1" d="M179.33,27.91V6.48H172V4.93h9.06V28.15c0,3,1.46,4.46,4.19,4.46a8.93,8.93,0,0,0,4-1l.58,1.37A10,10,0,0,1,185,34.18C181.4,34.18,179.33,32.28,179.33,27.91Z" transform="translate(-5.99 -4.43)"/><path class="cls-1" d="M206,16h-9.61V14.5h11.38V33.7H206Zm-1.41-8.12a1.89,1.89,0,1,1,3.77,0,1.89,1.89,0,1,1-3.77,0Z" transform="translate(-5.99 -4.43)"/><path class="cls-1" d="M220.71,14.5h1.5l.19,3.68h.16C224.77,15.8,227,14,230.14,14c4.66,0,6.89,2.51,6.89,7.72v12h-1.77V22c0-4.29-1.6-6.36-5.4-6.36-2.73,0-4.61,1.43-7.37,4.33V33.7h-1.78Z" transform="translate(-5.99 -4.43)"/><path class="cls-1" d="M243.56,24.12c0-6.26,4.61-10.1,9.63-10.1,5.25,0,8.59,3.37,8.59,8.88a9.13,9.13,0,0,1-.1,1.48H244.45V22.87h16.46l-.75.71c0-5.44-2.83-8-7-8s-7.82,3.13-7.82,8.52c0,5.56,3.86,8.59,8.41,8.59a10.94,10.94,0,0,0,6.45-2.08l.73,1.35a12.53,12.53,0,0,1-7.29,2.26C248.15,34.18,243.56,30.42,243.56,24.12Z" transform="translate(-5.99 -4.43)"/><path class="cls-1" d="M293.18,7.35h7.53c5.23,0,8.68,1.92,8.68,7,0,4.8-3.45,7.29-8.68,7.29H295V33.7h-1.86Zm7.05,12.7c4.66,0,7.25-1.86,7.25-5.74s-2.59-5.41-7.25-5.41H295V20.05Zm1.83.47,7.82,13.18h-2.13l-7.46-12.64Z" transform="translate(-5.99 -4.43)"/><path class="cls-1" d="M316.16,28.92c0-4.3,4.31-6.33,14.73-7.25,0-3.16-1.31-6.1-5.71-6.1a13.42,13.42,0,0,0-7.27,2.61l-.82-1.31a15.57,15.57,0,0,1,8.3-2.85c5.14,0,7.28,3.3,7.28,7.41V33.7h-1.51L331,30.83h-.09c-2.21,1.76-5.19,3.35-8,3.35C319.42,34.18,316.16,32.52,316.16,28.92Zm14.73.25V23c-9.77.87-12.91,2.72-12.91,5.8,0,2.75,2.59,3.81,5.18,3.81S328.18,31.45,330.89,29.17Z" transform="translate(-5.99 -4.43)"/><path class="cls-1" d="M345.49,26.52V16h-5.81V14.67l5.84-.17.24-6.36h1.51V14.5h10.21V16H347.27V26.65c0,3.74,1.07,6,5.35,6a13.25,13.25,0,0,0,5.11-1l.48,1.36a14.8,14.8,0,0,1-5.84,1.19C347.1,34.18,345.49,31.09,345.49,26.52Z" transform="translate(-5.99 -4.43)"/><path class="cls-1" d="M363.56,24.12c0-6.26,4.61-10.1,9.63-10.1,5.25,0,8.59,3.37,8.59,8.88a9.13,9.13,0,0,1-.1,1.48H364.45V22.87h16.46l-.75.71c0-5.44-2.83-8-7-8s-7.82,3.13-7.82,8.52c0,5.56,3.86,8.59,8.41,8.59a10.89,10.89,0,0,0,6.44-2.08l.74,1.35a12.55,12.55,0,0,1-7.29,2.26C368.14,34.18,363.56,30.42,363.56,24.12Z" transform="translate(-5.99 -4.43)"/><path class="cls-1" d="M390.48,31.54h-.09l-.21,2.16h-1.47V4.93h1.77v8.34l-.1,4.11h.09A10.66,10.66,0,0,1,397.66,14c5.42,0,8.14,3.85,8.14,9.79,0,6.52-4.19,10.37-8.9,10.37A10.92,10.92,0,0,1,390.48,31.54Zm13.46-7.72c0-4.72-1.86-8.23-6.55-8.23-2,0-4.51,1.12-6.91,3.52V29.78a10.05,10.05,0,0,0,6.32,2.82C400.92,32.6,403.94,29,403.94,23.82Z" transform="translate(-5.99 -4.43)"/><path class="cls-1" d="M411.18,24.14c0-6.43,4.28-10.12,9.31-10.12s9.31,3.69,9.31,10.12-4.28,10-9.31,10S411.18,30.49,411.18,24.14Zm16.76,0c0-5.06-3.12-8.56-7.45-8.56S413,19.08,413,24.14s3.12,8.47,7.45,8.47S427.94,29.19,427.94,24.14Z" transform="translate(-5.99 -4.43)"/><path class="cls-1" d="M436.16,28.92c0-4.3,4.31-6.33,14.73-7.25,0-3.16-1.31-6.1-5.71-6.1a13.42,13.42,0,0,0-7.27,2.61l-.82-1.31a15.57,15.57,0,0,1,8.3-2.85c5.14,0,7.27,3.3,7.27,7.41V33.7h-1.5l-.2-2.87h-.09c-2.2,1.76-5.18,3.35-8,3.35C439.42,34.18,436.16,32.52,436.16,28.92Zm14.73.25V23c-9.78.87-12.91,2.72-12.91,5.8,0,2.75,2.58,3.81,5.17,3.81S448.18,31.45,450.89,29.17Z" transform="translate(-5.99 -4.43)"/><path class="cls-1" d="M463,14.5h1.51l.2,4.74h.08a10.91,10.91,0,0,1,9-5.22,8.39,8.39,0,0,1,3.87.8l-.5,1.58a9.19,9.19,0,0,0-3.63-.69c-3.21,0-6.12,1.62-8.78,6v12H463Z" transform="translate(-5.99 -4.43)"/><path class="cls-1" d="M483.18,24.14c0-6.2,4.26-10.12,9-10.12a9.23,9.23,0,0,1,6.31,2.71h.08l-.1-3.88V4.93h1.77V33.7h-1.49l-.2-2.85h-.09a9.91,9.91,0,0,1-6.85,3.33C486.6,34.18,483.18,30.62,483.18,24.14Zm15.32,4.94V18.42c-2.17-2.05-4.16-2.83-6.16-2.83-4.06,0-7.3,3.72-7.3,8.54,0,5.1,2.57,8.47,6.85,8.47C494.13,32.6,496.37,31.35,498.5,29.08Z" transform="translate(-5.99 -4.43)"/></g></g></svg>